<svg width="1126" height="138" viewBox="0 0 1126 138" fill="none" xmlns="http://www.w3.org/2000/svg">
<circle opacity="0.5" cx="1074" cy="58" r="35" fill="#2A94E2"/>
<path d="M1040 65C1041.16 70.5833 1043.61 75.6831 1047 80" stroke="black" stroke-width="1.8" stroke-miterlimit="10"/>
<path d="M1102 80C1105.39 75.6831 1107.84 70.5833 1109 65" stroke="black" stroke-width="1.8" stroke-miterlimit="10"/>
<path d="M1047 80C1053.43 88.5176 1063.35 94 1074.5 94C1085.65 94 1095.57 88.5176 1102 80" stroke="black" stroke-width="1.8" stroke-miterlimit="10"/>
<path d="M1102 36C1095.57 27.483 1085.66 22 1074.5 22C1063.35 22 1053.43 27.4813 1047 36" stroke="black" stroke-width="1.8" stroke-miterlimit="10"/>
<path d="M1109 51C1107.84 45.4146 1105.39 40.3177 1102 36" stroke="black" stroke-width="1.8" stroke-miterlimit="10"/>
<path d="M1047 36C1043.61 40.3159 1041.16 45.4146 1040 51" stroke="black" stroke-width="1.8" stroke-miterlimit="10"/>
<path d="M1040 51C1039.35 53.2589 1039 55.5982 1039 57.9984C1039 60.4002 1039.35 62.7411 1040 65" stroke="black" stroke-width="1.8" stroke-miterlimit="10"/>
<path d="M1109 65C1109.65 62.7411 1110 60.4002 1110 57.9984C1110 55.5982 1109.65 53.2589 1109 51" stroke="black" stroke-width="1.8" stroke-miterlimit="10"/>
<path d="M1074.5 69C1094.11 69 1110 63.8513 1110 57.5C1110 51.1487 1094.11 46 1074.5 46C1054.89 46 1039 51.1487 1039 57.5C1039 63.8513 1054.89 69 1074.5 69Z" stroke="black" stroke-width="1.8" stroke-miterlimit="10"/>
<path d="M1075 22V58" stroke="black" stroke-width="1.8" stroke-miterlimit="10"/>
<path d="M1041 111H1108" stroke="black" stroke-width="1.8" stroke-miterlimit="10"/>
<path d="M1050 123H1099" stroke="black" stroke-width="1.8" stroke-miterlimit="10"/>
<path d="M1117.5 2H1024V137H1125V9.47563L1117.5 2Z" stroke="black" stroke-width="1.8" stroke-miterlimit="10"/>
<path opacity="0.5" d="M912 90.5C912 92.6699 911 95.5 911 95.5C911 95.5 897.357 101 890 101C877.85 101 868 96.299 868 90.5C868 84.701 877.85 80 890 80C902.15 80 912 85 912 90.5Z" fill="#2A94E2"/>
<path opacity="0.5" d="M918 72.5C918 74.6699 919 77.5 919 77.5C919 77.5 933.643 83 941 83C953.15 83 963 78.299 963 72.5C963 66.701 953.15 62 941 62C928.85 62 918 67 918 72.5Z" fill="#2A94E2"/>
<path opacity="0.5" d="M969 54.5C969 56.6699 970 59.5 970 59.5C970 59.5 984.643 65 992 65C1004.15 65 1014 60.299 1014 54.5C1014 48.701 1002.15 44 990 44C977.85 44 969 49 969 54.5Z" fill="#2A94E2"/>
<path d="M968.9 126.321V114.047C971.052 115.575 974.325 116.926 978.026 117.915C982.019 118.984 986.602 119.656 991 119.656C995.421 119.656 1000.02 118.795 1004.01 117.573C1007.72 116.434 1010.98 114.962 1013.1 113.528V126.321C1013.1 128.778 1011.04 131.22 1007.01 133.097C1003.04 134.947 997.43 136.1 991 136.1C984.57 136.1 978.958 134.947 974.987 133.097C970.957 131.22 968.9 128.778 968.9 126.321ZM1013.1 112.638L1012.47 111.772C1010.59 113.138 1007.35 114.666 1003.48 115.852C999.618 117.035 995.204 117.856 991 117.856C986.773 117.856 982.346 117.208 978.491 116.177C974.614 115.14 971.406 113.74 969.555 112.291L968.9 113.128V95.5497C971.033 97.0849 974.285 98.5992 977.99 99.7557C981.983 101.002 986.579 101.857 991 101.857C995.412 101.857 1000 101.074 1003.99 99.9281C1007.71 98.8604 1010.97 97.4578 1013.1 96.0274V112.638ZM1013.1 78.028V95.1376L1012.47 94.2719C1010.6 95.6316 1007.37 97.0848 1003.49 98.1981C999.634 99.3072 995.213 100.057 991 100.057C986.796 100.057 982.382 99.2409 978.527 98.0374C974.657 96.8296 971.427 95.2559 969.555 93.7912L968.9 94.6278V78.0486C971.041 79.5806 974.302 81.0253 978.005 82.1107C981.998 83.2809 986.589 84.0579 991 84.0579C995.418 84.0579 1000.01 83.2229 1004 82.0256C1007.72 80.91 1010.97 79.4604 1013.1 78.028ZM969.555 76.2912L968.9 77.1278V60.0486C971.042 61.5803 974.303 63.02 978.006 64.1002C981.999 65.265 986.59 66.0364 991 66.0364C995.418 66.0364 1000.01 65.207 1004 64.0151C1007.72 62.9047 1010.97 61.4602 1013.1 60.0279V77.1376L1012.47 76.2719C1010.59 77.6361 1007.36 79.1392 1003.48 80.3016C999.623 81.4601 995.207 82.2579 991 82.2579C986.786 82.2579 982.367 81.5133 978.512 80.3833C974.639 79.2484 971.418 77.749 969.555 76.2912ZM969.555 58.2912L968.9 59.1278V54.6794C968.9 52.2215 970.957 49.7802 974.987 47.9028C978.958 46.053 984.57 44.9 991 44.9C997.436 44.9 1003.05 45.9994 1007.02 47.8215C1011.03 49.6659 1013.1 52.1054 1013.1 54.6794V59.1376L1012.47 58.2719C1010.59 59.6356 1007.36 61.1334 1003.48 62.2905C999.624 63.4437 995.207 64.2364 991 64.2364C986.785 64.2364 982.366 63.4969 978.51 62.3723C974.638 61.2426 971.417 59.7485 969.555 58.2912Z" stroke="black" stroke-width="1.8"/>
<path d="M917.9 126.207V113.047C920.077 114.6 923.407 116.142 927.204 117.321C931.286 118.589 935.986 119.462 940.5 119.462C945.021 119.462 949.723 118.53 953.802 117.235C957.612 116.025 960.938 114.478 963.1 113.026V126.207C963.1 128.692 960.996 131.163 956.873 133.063C952.812 134.934 947.073 136.1 940.5 136.1C933.927 136.1 928.188 134.934 924.127 133.063C920.004 131.163 917.9 128.692 917.9 126.207ZM963.1 112.139L962.475 111.269C960.544 112.657 957.218 114.262 953.257 115.519C949.306 116.774 944.791 117.662 940.5 117.662C936.202 117.662 931.685 116.828 927.738 115.602C923.777 114.372 920.467 112.771 918.551 111.288L917.9 112.129V94.5482C920.063 96.1074 923.38 97.768 927.179 99.0689C931.261 100.467 935.969 101.474 940.5 101.474C945.022 101.474 949.724 100.539 953.802 99.2407C957.612 98.0279 960.938 96.4786 963.1 95.0261V112.139ZM963.1 77.0262V94.1391L962.475 93.2692C960.544 94.6571 957.217 96.2648 953.256 97.5255C949.305 98.7834 944.791 99.674 940.5 99.674C936.218 99.674 931.71 98.7181 927.762 97.366C923.805 96.011 920.482 94.2825 918.551 92.7883L917.9 93.6292V77.545C920.089 79.0936 923.433 80.5241 927.227 81.5898C931.31 82.7369 936.001 83.4858 940.5 83.4858C945.022 83.4858 949.724 82.5478 953.803 81.2465C957.613 80.0308 960.939 78.4787 963.1 77.0262ZM918.551 75.7883L917.9 76.6292V71.7929C917.9 69.3084 920.004 66.8373 924.127 64.9372C928.188 63.0658 933.927 61.9 940.5 61.9C947.073 61.9 952.812 63.0658 956.873 64.9372C960.996 66.8373 963.1 69.3084 963.1 71.7929V76.1391L962.475 75.2692C960.543 76.6574 957.216 78.268 953.256 79.5316C949.304 80.7924 944.79 81.6858 940.5 81.6858C936.187 81.6858 931.661 80.9657 927.714 79.8569C923.748 78.7428 920.453 77.2604 918.551 75.7883Z" stroke="black" stroke-width="1.8"/>
<path d="M867.9 126.167V112.556C870.021 114.117 873.26 115.755 876.965 117.033C880.958 118.41 885.563 119.394 890 119.394C894.428 119.394 899.027 118.482 903.016 117.204C906.732 116.014 909.98 114.487 912.1 113.033V126.167C912.1 128.675 910.033 131.153 906.008 133.055C902.039 134.931 896.428 136.1 890 136.1C883.572 136.1 877.961 134.931 873.992 133.055C869.967 131.153 867.9 128.675 867.9 126.167ZM912.1 112.136L911.466 111.276C909.581 112.665 906.336 114.251 902.467 115.49C898.608 116.726 894.197 117.594 890 117.594C885.812 117.594 881.408 116.661 877.552 115.331C873.687 113.998 870.444 112.291 868.56 110.795L867.9 111.626V94.5556C870.023 96.1162 873.263 97.7414 876.968 99.0064C880.96 100.37 885.565 101.34 890 101.34C894.424 101.34 899.145 100.442 903.256 99.1804C906.798 98.0929 909.951 96.7148 912.1 95.3589V112.136ZM912.1 93.4573L911.966 93.2755C910.09 94.658 906.729 96.2312 902.727 97.4597C898.74 98.684 894.201 99.5397 890 99.5397C885.81 99.5397 881.405 98.6196 877.549 97.303C873.684 95.983 870.443 94.2897 868.56 92.7951L867.9 93.626V89.8327C867.9 87.3248 869.967 84.8468 873.992 82.945C877.961 81.0693 883.572 79.9 890 79.9C896.547 79.9 902.157 81.0155 906.094 82.8616C910.069 84.7254 912.1 87.1991 912.1 89.8327V93.4573Z" stroke="black" stroke-width="1.8"/>
<path d="M890 69L922 37H963L990 10M990 10V24M990 10H976" stroke="black" stroke-width="1.8"/>
<path d="M769.951 75.3387L763.437 52.77L761.95 53.1993L768.463 75.768L769.951 75.3387Z" fill="black" stroke="black" stroke-width="0.5"/>
<path d="M843.237 53.1983L841.75 52.769L835.236 75.3377L836.724 75.767L843.237 53.1983Z" fill="black" stroke="black" stroke-width="0.5"/>
<path d="M852.992 105H752.124C751.699 105 751.354 104.651 751.354 104.221V84.1098L748.01 63.1012C747.963 62.8085 748.085 62.5142 748.325 62.3429L762.288 52.34C763.594 44.0142 773.642 4.29692 774.075 2.58566C774.179 2.17147 774.6 1.91922 775.008 2.02354C775.1 2.0469 784.395 4.35454 800.606 4.35454C810.157 4.35454 820.199 3.56508 830.447 2.00953C830.851 1.95503 831.209 2.1995 831.308 2.58722C831.741 4.29537 841.775 43.9534 843.088 52.3229L856.649 61.2405C856.903 61.4071 857.037 61.7092 856.991 62.0128L853.751 83.1428L853.762 104.221C853.762 104.429 853.68 104.626 853.537 104.773C853.394 104.919 853.197 105 852.992 105ZM752.894 103.443H852.222V83.0229L855.393 62.2697L841.958 53.4363C841.772 53.3132 841.647 53.1155 841.615 52.8944C840.635 45.9683 831.371 9.13798 829.985 3.65228C819.9 5.15178 810.02 5.91009 800.606 5.91165C786.801 5.91165 777.918 4.24865 775.382 3.70522C773.955 9.36532 764.743 45.9917 763.763 52.8959C763.732 53.1077 763.618 53.2961 763.446 53.4207L749.608 63.3348L752.887 83.9883L752.894 103.443Z" fill="black" stroke="black" stroke-width="0.5"/>
<path d="M787.5 30C786.121 30 785 28.8785 785 27.5C785 26.1215 786.121 25 787.5 25C788.879 25 790 26.1215 790 27.5C790 28.8785 788.879 30 787.5 30ZM787.5 26.4775C786.936 26.4775 786.478 26.9371 786.478 27.5C786.478 28.0644 786.937 28.5225 787.5 28.5225C788.063 28.5225 788.522 28.0629 788.522 27.5C788.522 26.9356 788.064 26.4775 787.5 26.4775Z" fill="black" stroke="black" stroke-width="0.5"/>
<path d="M817.501 30C816.12 30 815 28.8785 815 27.5C815 26.1215 816.122 25 817.501 25C818.88 25 820 26.1215 820 27.5C820 28.8785 818.878 30 817.501 30ZM817.501 26.4775C816.936 26.4775 816.478 26.9371 816.478 27.5C816.478 28.0644 816.938 28.5225 817.501 28.5225C818.064 28.5225 818.522 28.0629 818.522 27.5C818.522 26.9356 818.062 26.4775 817.501 26.4775Z" fill="black" stroke="black" stroke-width="0.5"/>
<path d="M787.5 48C786.121 48 785 46.8785 785 45.5C785 44.1215 786.121 43 787.5 43C788.879 43 790 44.1215 790 45.5C790 46.8785 788.879 48 787.5 48ZM787.5 44.4775C786.936 44.4775 786.478 44.9371 786.478 45.5C786.478 46.0629 786.937 46.5225 787.5 46.5225C788.063 46.5225 788.522 46.0629 788.522 45.5C788.522 44.9371 788.064 44.4775 787.5 44.4775Z" fill="black" stroke="black" stroke-width="0.5"/>
<path d="M817.501 48C816.12 48 815 46.8785 815 45.5C815 44.1215 816.122 43 817.501 43C818.88 43 820 44.1215 820 45.5C820 46.8785 818.878 48 817.501 48ZM817.501 44.4775C816.936 44.4775 816.478 44.9371 816.478 45.5C816.478 46.0629 816.938 46.5225 817.501 46.5225C818.064 46.5225 818.522 46.0629 818.522 45.5C818.522 44.9371 818.062 44.4775 817.501 44.4775Z" fill="black" stroke="black" stroke-width="0.5"/>
<path d="M761.363 137C759.954 137 759.257 134.769 759.023 133.811C759 133.714 758.994 133.614 759.006 133.513L762.669 103.695C762.718 103.299 763.044 103 763.431 103L769.232 103.002C769.461 103.002 769.679 103.107 769.825 103.291C769.971 103.474 770.029 103.715 769.986 103.949C769.948 104.154 766.094 124.677 764.12 132.521C763.328 135.66 762.503 137 761.363 137ZM760.547 133.561C760.758 134.34 761.119 135.138 761.36 135.372C761.531 135.207 762.019 134.55 762.631 132.122C764.35 125.292 767.514 108.73 768.298 104.595H764.106L760.547 133.561Z" fill="black" stroke="black" stroke-width="0.5"/>
<path d="M843.637 137C842.496 137 841.672 135.66 840.882 132.522C838.907 124.677 835.052 104.153 835.014 103.948C834.971 103.714 835.031 103.472 835.175 103.289C835.319 103.107 835.538 103 835.768 103H841.565C841.952 103 842.277 103.299 842.327 103.695L845.994 133.515C846.006 133.613 846 133.715 845.975 133.812C845.742 134.769 845.044 137 843.637 137ZM836.701 104.59C837.484 108.727 840.647 125.291 842.367 132.12C842.978 134.548 843.467 135.203 843.637 135.37C843.878 135.138 844.239 134.34 844.448 133.559L840.887 104.587L836.701 104.59Z" fill="black" stroke="black" stroke-width="0.5"/>
<g opacity="0.5">
<path d="M838.977 89H765.02C761.15 89 758 85.6334 758 81.4985C758 77.3635 761.15 74 765.02 74H838.976C842.849 74 846 77.365 846 81.4985C846 85.635 842.85 89 838.977 89Z" fill="#2A94E2"/>
<path d="M765.02 75.5429H838.976C841.995 75.5429 844.451 78.2136 844.451 81.4985C844.451 84.7848 841.995 87.4571 838.977 87.4571H765.02M838.977 89H765.02C761.15 89 758 85.6334 758 81.4985C758 77.3635 761.15 74 765.02 74H838.976C842.849 74 846 77.365 846 81.4985C846 85.635 842.85 89 838.977 89Z" stroke="black" stroke-width="0.5"/>
</g>
<path d="M838.977 89H765.02C761.15 89 758 85.6334 758 81.4985C758 77.3635 761.15 74 765.02 74H838.976C842.849 74 846 77.365 846 81.4985C846 85.635 842.85 89 838.977 89ZM765.02 75.5429C762.003 75.5429 759.549 78.2136 759.549 81.4985C759.549 84.7848 762.003 87.4571 765.02 87.4571H838.977C841.995 87.4571 844.451 84.7848 844.451 81.4985C844.451 78.2136 841.995 75.5429 838.976 75.5429H765.02Z" fill="black" stroke="black" stroke-width="0.5"/>
<path d="M853.222 89H751.778C751.348 89 751 88.776 751 88.5C751 88.224 751.348 88 751.778 88H853.222C853.652 88 854 88.224 854 88.5C854 88.776 853.652 89 853.222 89Z" fill="black" stroke="black" stroke-width="0.5"/>
<path d="M852.806 105C852.361 105 852 104.658 852 104.237V83.4662L855.398 62.6449C855.466 62.2284 855.888 61.9461 856.317 62.0087C856.757 62.0728 857.058 62.4633 856.991 62.8799L853.601 83.5837L853.61 104.237C853.612 104.658 853.251 105 852.806 105Z" fill="black" stroke="black" stroke-width="0.5"/>
<path opacity="0.5" d="M618 91H711V102.5L706.5 106H622.5L618 102.5V91Z" fill="#2A94E2"/>
<path d="M731.409 80.6462H717.209C716.649 80.6462 716.121 80.7177 715.614 80.8228L714.354 51.1304C714.051 44.0131 707.933 38 700.994 38H665.258H663.742H627.968C621.03 38 614.911 44.0131 614.606 51.1304L613.347 80.8198C612.839 80.7162 612.312 80.6462 611.751 80.6462H597.55C593.693 80.6462 591 83.2095 591 86.8786V99.3282C591 102.668 591 108.136 591 111.478V120.283C591 123.867 593.69 127.862 597.55 127.862H604.639V134.715V135.477V136.238C604.639 136.659 604.979 137 605.397 137H609.186H609.943C610.362 137 610.701 136.659 610.701 136.238V127.862H624.242H704.719H718.299V136.238V137H719.057H722.845H723.603C724.021 137 724.361 136.659 724.361 136.238V127.862H731.409C735.293 127.862 738 123.867 738 120.281V111.476C738 108.136 738 102.668 738 99.3267V86.8771C738 83.2095 735.29 80.6462 731.409 80.6462ZM665.258 39.5231H700.994C707.147 39.5231 712.571 44.8691 712.839 51.1959L714.118 81.3346C712.037 82.3231 710.722 84.3198 710.722 86.8786V90.5614C710.088 90.0801 709.309 89.7846 708.458 89.7846H665.258V39.5231ZM665.258 91.3077H708.458C709.706 91.3077 710.722 92.3282 710.722 93.5832V99.3267C710.722 102.253 708 105.015 705.122 105.015H665.258V91.3077ZM663.742 105.015H623.84C620.98 105.015 618.278 102.253 618.278 99.3282V93.5847C618.278 92.3282 619.294 91.3077 620.542 91.3077H663.742V105.015ZM616.12 51.1959C616.392 44.8691 621.817 39.5231 627.968 39.5231H663.742V89.7846H620.542C619.689 89.7846 618.912 90.0801 618.278 90.5614V86.8786C618.278 84.3107 616.946 82.3094 614.841 81.3254L616.12 51.1959ZM609.186 135.477H606.155V127.862H609.186V135.477ZM722.845 135.477H719.814V127.862H722.845V135.477ZM736.485 120.281C736.485 123.14 734.314 126.338 731.409 126.338H724.361H722.845H719.814H718.299H717.209C713.886 126.338 708.445 126.338 705.12 126.338H704.716H624.242H623.84C620.517 126.338 615.076 126.338 611.751 126.338H609.186H606.155H604.639H597.55C594.583 126.338 592.515 123.146 592.515 120.281V86.8786C592.515 84.0624 594.539 82.1692 597.55 82.1692H611.751C614.749 82.1692 616.763 84.0624 616.763 86.8786V93.5832V99.3267C616.763 103.101 620.136 106.538 623.84 106.538H705.122C708.846 106.538 712.237 103.101 712.237 99.3282V93.5847V86.8801C712.237 84.0624 714.234 82.1692 717.209 82.1692H731.409C734.445 82.1692 736.485 84.0624 736.485 86.8786V120.281Z" fill="black" stroke="black" stroke-width="0.5"/>
<path d="M640.5 66C641.881 66 643 65.1046 643 64C643 62.8954 641.881 62 640.5 62C639.119 62 638 62.8954 638 64C638 65.1046 639.119 66 640.5 66Z" fill="black" stroke="black" stroke-width="0.5"/>
<path d="M689 66C690.105 66 691 65.1046 691 64C691 62.8954 690.105 62 689 62C687.895 62 687 62.8954 687 64C687 65.1046 687.895 66 689 66Z" fill="black" stroke="black" stroke-width="0.5"/>
<path d="M554.542 2H537.155V17.1685H454V27.0281H488.018V36.736L477.283 47.5056H472.899V61.1573H505.405V47.5056H501.02L490.286 36.736V27.0281H537.155V96.8034H520.524V74.0506H457.78V137H537.155H554.542H565.881V96.8034H554.542V27.0281H581V17.1685H554.542V2ZM539.423 4.27528H552.274V17.1685H539.423V4.27528ZM503.137 49.7809V58.882H475.167V49.7809H503.137ZM497.694 47.5056H480.458L489.076 38.8595L497.694 47.5056ZM563.613 99.0787V134.725H552.274H539.423H460.048V76.3258H518.256V99.0787H563.613ZM539.423 96.8034V27.0281H552.274V96.8034H539.423ZM578.732 19.4438V24.7528H456.268V19.4438H578.732Z" fill="black"/>
<path opacity="0.5" d="M471 103H486V88H471V103Z" fill="#2A94E2"/>
<path d="M485.1 88.9V102.1H471.9V88.9H485.1Z" stroke="black" stroke-width="1.8"/>
<path opacity="0.5" d="M493 103H508V88H493V103Z" fill="#2A94E2"/>
<path d="M507.1 88.9V102.1H493.9V88.9H507.1Z" stroke="black" stroke-width="1.8"/>
<path opacity="0.5" d="M471 125H486V110H471V125Z" fill="#2A94E2"/>
<path d="M485.1 110.9V124.1H471.9V110.9H485.1Z" stroke="black" stroke-width="1.8"/>
<path opacity="0.5" d="M493 125H508V110H493V125Z" fill="#2A94E2"/>
<path d="M507.1 110.9V124.1H493.9V110.9H507.1Z" stroke="black" stroke-width="1.8"/>
<path opacity="0.5" d="M518 125H533V110H518V125Z" fill="#2A94E2"/>
<path d="M532.1 110.9V124.1H518.9V110.9H532.1Z" stroke="black" stroke-width="1.8"/>
<path opacity="0.5" d="M540 125H555V110H540V125Z" fill="#2A94E2"/>
<path d="M554.1 110.9V124.1H540.9V110.9H554.1Z" stroke="black" stroke-width="1.8"/>
<path d="M560 47H570V33H560V47ZM562.308 35.3333H567.692V44.6667H562.308V35.3333Z" fill="black"/>
<path opacity="0.5" d="M305 19.6098L413.142 2L416 4.31707L415.524 21H316.91L305 19.6098Z" fill="#2A94E2"/>
<path d="M432.32 104.216V132.561C432.32 134.951 430.281 137 427.841 137H304.423C302.041 137 300 134.953 300 132.561V131.764V25.6769V24.9362C300 22.4883 301.985 20.1553 304.366 19.7567L411.682 2.05636C412.024 2 412.248 2 412.532 2C414.519 2.11273 415.991 3.70703 415.991 5.81263V21.2363M432.32 104.216H439.577C442.017 104.216 444 102.167 444 99.7776V58.4587C444 56.0109 442.017 53.9636 439.577 53.9636H432.32M432.32 104.216H378.007C375.571 104.216 373.585 102.169 373.585 99.7776V58.4587C373.585 56.0129 375.571 53.9636 378.007 53.9636H432.32M432.32 53.9636V25.6769C432.32 23.2291 430.281 21.2363 427.841 21.2363H415.991M415.991 21.2363H301.907M398.476 71.662C394.336 71.662 390.991 75.0197 390.991 79.1181C390.991 83.2709 394.336 86.6286 398.476 86.6286C402.556 86.6286 406.072 83.2709 406.072 79.1181C406.07 75.0197 402.556 71.662 398.476 71.662Z" stroke="black" stroke-width="1.8"/>
<path opacity="0.5" d="M170 50H188V69H170V50Z" fill="#2A94E2"/>
<path opacity="0.5" d="M205 50H224V69H205V50Z" fill="#2A94E2"/>
<path opacity="0.5" d="M261 75H278V92H261V75Z" fill="#2A94E2"/>
<path d="M237.754 2V137H208.683V119.202C208.683 118.355 207.913 117.584 207.068 117.584H187.687C186.617 117.62 186.096 118.592 186.072 119.202V137H157V39.3146L237.754 2ZM248.008 30.2135H290V137H248.008V30.2135ZM260.928 43.1573H277.079V59.337H260.928V43.1573ZM169.921 49.6292H189.302V69.045H169.921V49.6292ZM205.453 49.6292H224.834V69.045H205.453V49.6292ZM260.928 75.5169H277.079V91.6967H260.928V75.5169ZM169.921 85.2248H189.302V104.64H169.921V85.2248ZM205.453 85.2248H224.834V104.64H205.453V85.2248ZM260.928 107.876H277.079V124.056H260.928V107.876Z" stroke="black" stroke-width="1.8"/>
<path opacity="0.5" d="M142 62.3289L125 55V70.1146L142 75V62.3289Z" fill="#2A94E2"/>
<path d="M142 62.3289L125 55V70.1146L142 75V62.3289V62.3289ZM140.465 72.922L126.535 68.9204V57.371L140.465 63.3749V72.922Z" fill="black"/>
<path opacity="0.5" d="M142 77.9232L125 73V88.8938L142 92V77.9232Z" fill="#2A94E2"/>
<path d="M142 77.9232L125 73V88.8938L142 92V77.9232ZM140.465 89.9444L126.535 87.396V75.2538L140.465 79.286V89.9444Z" fill="black"/>
<path opacity="0.5" d="M88 42.2755L81 40V59.7956L88 62V42.2755Z" fill="#2A94E2"/>
<path d="M88 42.2755L81 40V59.7956L88 62V42.2755ZM86.3432 59.7795L82.6568 58.6182V42.2432L86.3432 43.4416V59.7795Z" fill="black"/>
<path opacity="0.5" d="M88 107.929V90.8668L81 90V108L88 107.929Z" fill="#2A94E2"/>
<path d="M88 107.929V90.8668L81 90V108L88 107.929ZM82.6585 91.8583L86.3449 92.3146V106.303L82.6585 106.339V91.8583Z" fill="black"/>
<path opacity="0.5" d="M97 70.4663L89 69V86.3372L97 87V70.4663Z" fill="#2A94E2"/>
<path d="M97 70.4663L89 69V86.3372L97 87V70.4663ZM95.1056 85.3203L90.8944 84.9723V70.9006L95.1056 71.6724V85.3203Z" fill="black"/>
<path d="M116 51.355L110 49V68.1888L116 70V51.355ZM114.173 67.495L111.827 66.7862V51.7244L114.173 52.645V67.495Z" fill="black"/>
<path d="M104 86.3943L110 87V71.3632L104 70V86.3943ZM105.705 72.0465L108.295 72.636V85.2039L105.705 84.9422V72.0465Z" fill="black"/>
<path opacity="0.5" d="M14 60.8011V73L58 62.8113V48L14 60.8011Z" fill="#2A94E2"/>
<path d="M14 60.8011V73L58 62.8113V48L14 60.8011ZM56.3883 61.5865L15.6085 71.0287V61.9544L56.3883 50.0893V61.5865Z" fill="black"/>
<path opacity="0.5" d="M14 92L58 86.7765V70L14 78.4655V92Z" fill="#2A94E2"/>
<path d="M14 92L58 86.7765V70L14 78.4655V92ZM15.6101 79.7785L56.3899 71.9306V85.3648L15.6101 90.2063V79.7785Z" fill="black"/>
<path d="M121.824 45.9458V35.5733L57.0224 2L18.6623 20.1631V41.0726L0 48.8761V62.6485L6.50993 63.7861V117.318H13.6708L13.6822 127.412L69.0198 136.977L69.1458 137L93.2567 133.469L96.4374 133.022V133.005L125.257 128.787L125.949 128.685V114.141L147 113.546V57.4574L121.824 45.9458ZM57.814 4.22682L120.208 36.5528V45.2067L69.1716 21.8703L57.814 26.6289V4.22682ZM15.2846 115.705H8.12529V62.4307L1.61537 61.2931V49.9492L20.2761 42.144V21.1829L56.1986 4.17518V29.0542L68.3494 23.9632V135.223L15.2959 126.051L15.2846 115.705ZM91.2311 132.127V116.329H94.822V131.612L93.1679 131.853L91.2311 132.127ZM145.385 111.974L124.333 112.57V127.289L96.4374 131.375V114.716H89.6157V132.372L69.9648 135.249V24.0084L145.383 58.4934V111.974H145.385Z" fill="black"/>
</svg>
