<svg width="1756" height="138" viewBox="0 0 1756 138" fill="none" xmlns="http://www.w3.org/2000/svg">
<circle opacity="0.5" cx="1704" cy="58" r="35" fill="#2A94E2"/>
<path d="M1670 65C1671.16 70.5833 1673.61 75.6831 1677 80" stroke="black" stroke-width="1.8" stroke-miterlimit="10"/>
<path d="M1732 80C1735.39 75.6831 1737.84 70.5833 1739 65" stroke="black" stroke-width="1.8" stroke-miterlimit="10"/>
<path d="M1677 80C1683.43 88.5176 1693.35 94 1704.5 94C1715.65 94 1725.57 88.5176 1732 80" stroke="black" stroke-width="1.8" stroke-miterlimit="10"/>
<path d="M1732 36C1725.57 27.483 1715.66 22 1704.5 22C1693.35 22 1683.43 27.4813 1677 36" stroke="black" stroke-width="1.8" stroke-miterlimit="10"/>
<path d="M1739 51C1737.84 45.4146 1735.39 40.3177 1732 36" stroke="black" stroke-width="1.8" stroke-miterlimit="10"/>
<path d="M1677 36C1673.61 40.3159 1671.16 45.4146 1670 51" stroke="black" stroke-width="1.8" stroke-miterlimit="10"/>
<path d="M1670 51C1669.35 53.2589 1669 55.5982 1669 57.9984C1669 60.4002 1669.35 62.7411 1670 65" stroke="black" stroke-width="1.8" stroke-miterlimit="10"/>
<path d="M1739 65C1739.65 62.7411 1740 60.4002 1740 57.9984C1740 55.5982 1739.65 53.2589 1739 51" stroke="black" stroke-width="1.8" stroke-miterlimit="10"/>
<path d="M1704.5 69C1724.11 69 1740 63.8513 1740 57.5C1740 51.1487 1724.11 46 1704.5 46C1684.89 46 1669 51.1487 1669 57.5C1669 63.8513 1684.89 69 1704.5 69Z" stroke="black" stroke-width="1.8" stroke-miterlimit="10"/>
<path d="M1705 22V58" stroke="black" stroke-width="1.8" stroke-miterlimit="10"/>
<path d="M1671 111H1738" stroke="black" stroke-width="1.8" stroke-miterlimit="10"/>
<path d="M1680 123H1729" stroke="black" stroke-width="1.8" stroke-miterlimit="10"/>
<path d="M1747.5 2H1654V137H1755V9.47563L1747.5 2Z" stroke="black" stroke-width="1.8" stroke-miterlimit="10"/>
<path opacity="0.5" d="M1452 90.5C1452 92.6699 1451 95.5 1451 95.5C1451 95.5 1437.36 101 1430 101C1417.85 101 1408 96.299 1408 90.5C1408 84.701 1417.85 80 1430 80C1442.15 80 1452 85 1452 90.5Z" fill="#2A94E2"/>
<path opacity="0.5" d="M1458 72.5C1458 74.6699 1459 77.5 1459 77.5C1459 77.5 1473.64 83 1481 83C1493.15 83 1503 78.299 1503 72.5C1503 66.701 1493.15 62 1481 62C1468.85 62 1458 67 1458 72.5Z" fill="#2A94E2"/>
<path opacity="0.5" d="M1509 54.5C1509 56.6699 1510 59.5 1510 59.5C1510 59.5 1524.64 65 1532 65C1544.15 65 1554 60.299 1554 54.5C1554 48.701 1542.15 44 1530 44C1517.85 44 1509 49 1509 54.5Z" fill="#2A94E2"/>
<path d="M1508.9 54.6794C1508.9 52.2215 1510.96 49.7802 1514.99 47.9028C1518.96 46.053 1524.57 44.9 1531 44.9C1537.44 44.9 1543.05 45.9994 1547.02 47.8215C1551.03 49.6659 1553.1 52.1054 1553.1 54.6794V126.321C1553.1 128.778 1551.04 131.22 1547.01 133.097C1543.04 134.947 1537.43 136.1 1531 136.1C1524.57 136.1 1518.96 134.947 1514.99 133.097C1510.96 131.22 1508.9 128.778 1508.9 126.321V54.6794Z" stroke="black" stroke-width="1.8"/>
<path d="M1457.9 71.7929C1457.9 69.3084 1460 66.8373 1464.13 64.9372C1468.19 63.0658 1473.93 61.9 1480.5 61.9C1487.07 61.9 1492.81 63.0658 1496.87 64.9372C1501 66.8373 1503.1 69.3084 1503.1 71.7929V126.207C1503.1 128.692 1501 131.163 1496.87 133.063C1492.81 134.934 1487.07 136.1 1480.5 136.1C1473.93 136.1 1468.19 134.934 1464.13 133.063C1460 131.163 1457.9 128.692 1457.9 126.207V71.7929Z" stroke="black" stroke-width="1.8"/>
<path d="M1407.9 89.8327C1407.9 87.3248 1409.97 84.8468 1413.99 82.945C1417.96 81.0693 1423.57 79.9 1430 79.9C1436.55 79.9 1442.16 81.0155 1446.09 82.8616C1450.07 84.7254 1452.1 87.1991 1452.1 89.8327V126.167C1452.1 128.675 1450.03 131.153 1446.01 133.055C1442.04 134.931 1436.43 136.1 1430 136.1C1423.57 136.1 1417.96 134.931 1413.99 133.055C1409.97 131.153 1407.9 128.675 1407.9 126.167V89.8327Z" stroke="black" stroke-width="1.8"/>
<path d="M1430 69L1462 37H1503L1530 10M1530 10V24M1530 10H1516" stroke="black" stroke-width="1.8"/>
<path d="M1219.95 75.3387L1213.44 52.77L1211.95 53.1993L1218.46 75.768L1219.95 75.3387Z" fill="black" stroke="black" stroke-width="0.5"/>
<path d="M1293.24 53.1983L1291.75 52.769L1285.24 75.3377L1286.72 75.767L1293.24 53.1983Z" fill="black" stroke="black" stroke-width="0.5"/>
<path d="M1302.99 105H1202.12C1201.7 105 1201.35 104.651 1201.35 104.221V84.1098L1198.01 63.1012C1197.96 62.8085 1198.09 62.5142 1198.33 62.3429L1212.29 52.34C1213.59 44.0142 1223.64 4.29692 1224.07 2.58566C1224.18 2.17147 1224.6 1.91922 1225.01 2.02354C1225.1 2.0469 1234.4 4.35454 1250.61 4.35454C1260.16 4.35454 1270.2 3.56508 1280.45 2.00953C1280.85 1.95503 1281.21 2.1995 1281.31 2.58722C1281.74 4.29537 1291.77 43.9534 1293.09 52.3229L1306.65 61.2405C1306.9 61.4071 1307.04 61.7092 1306.99 62.0128L1303.75 83.1428L1303.76 104.221C1303.76 104.429 1303.68 104.626 1303.54 104.773C1303.39 104.919 1303.2 105 1302.99 105ZM1202.89 103.443H1302.22V83.0229L1305.39 62.2697L1291.96 53.4363C1291.77 53.3132 1291.65 53.1155 1291.61 52.8944C1290.64 45.9683 1281.37 9.13798 1279.99 3.65228C1269.9 5.15178 1260.02 5.91009 1250.61 5.91165C1236.8 5.91165 1227.92 4.24865 1225.38 3.70522C1223.95 9.36532 1214.74 45.9917 1213.76 52.8959C1213.73 53.1077 1213.62 53.2961 1213.45 53.4207L1199.61 63.3348L1202.89 83.9883L1202.89 103.443Z" fill="black" stroke="black" stroke-width="0.5"/>
<path d="M1237.5 30C1236.12 30 1235 28.8785 1235 27.5C1235 26.1215 1236.12 25 1237.5 25C1238.88 25 1240 26.1215 1240 27.5C1240 28.8785 1238.88 30 1237.5 30ZM1237.5 26.4775C1236.94 26.4775 1236.48 26.9371 1236.48 27.5C1236.48 28.0644 1236.94 28.5225 1237.5 28.5225C1238.06 28.5225 1238.52 28.0629 1238.52 27.5C1238.52 26.9356 1238.06 26.4775 1237.5 26.4775Z" fill="black" stroke="black" stroke-width="0.5"/>
<path d="M1267.5 30C1266.12 30 1265 28.8785 1265 27.5C1265 26.1215 1266.12 25 1267.5 25C1268.88 25 1270 26.1215 1270 27.5C1270 28.8785 1268.88 30 1267.5 30ZM1267.5 26.4775C1266.94 26.4775 1266.48 26.9371 1266.48 27.5C1266.48 28.0644 1266.94 28.5225 1267.5 28.5225C1268.06 28.5225 1268.52 28.0629 1268.52 27.5C1268.52 26.9356 1268.06 26.4775 1267.5 26.4775Z" fill="black" stroke="black" stroke-width="0.5"/>
<path d="M1237.5 48C1236.12 48 1235 46.8785 1235 45.5C1235 44.1215 1236.12 43 1237.5 43C1238.88 43 1240 44.1215 1240 45.5C1240 46.8785 1238.88 48 1237.5 48ZM1237.5 44.4775C1236.94 44.4775 1236.48 44.9371 1236.48 45.5C1236.48 46.0629 1236.94 46.5225 1237.5 46.5225C1238.06 46.5225 1238.52 46.0629 1238.52 45.5C1238.52 44.9371 1238.06 44.4775 1237.5 44.4775Z" fill="black" stroke="black" stroke-width="0.5"/>
<path d="M1267.5 48C1266.12 48 1265 46.8785 1265 45.5C1265 44.1215 1266.12 43 1267.5 43C1268.88 43 1270 44.1215 1270 45.5C1270 46.8785 1268.88 48 1267.5 48ZM1267.5 44.4775C1266.94 44.4775 1266.48 44.9371 1266.48 45.5C1266.48 46.0629 1266.94 46.5225 1267.5 46.5225C1268.06 46.5225 1268.52 46.0629 1268.52 45.5C1268.52 44.9371 1268.06 44.4775 1267.5 44.4775Z" fill="black" stroke="black" stroke-width="0.5"/>
<path d="M1211.36 137C1209.95 137 1209.26 134.769 1209.02 133.811C1209 133.714 1208.99 133.614 1209.01 133.513L1212.67 103.695C1212.72 103.299 1213.04 103 1213.43 103L1219.23 103.002C1219.46 103.002 1219.68 103.107 1219.82 103.291C1219.97 103.474 1220.03 103.715 1219.99 103.949C1219.95 104.154 1216.09 124.677 1214.12 132.521C1213.33 135.66 1212.5 137 1211.36 137ZM1210.55 133.561C1210.76 134.34 1211.12 135.138 1211.36 135.372C1211.53 135.207 1212.02 134.55 1212.63 132.122C1214.35 125.292 1217.51 108.73 1218.3 104.595H1214.11L1210.55 133.561Z" fill="black" stroke="black" stroke-width="0.5"/>
<path d="M1293.64 137C1292.5 137 1291.67 135.66 1290.88 132.522C1288.91 124.677 1285.05 104.153 1285.01 103.948C1284.97 103.714 1285.03 103.472 1285.17 103.289C1285.32 103.107 1285.54 103 1285.77 103H1291.56C1291.95 103 1292.28 103.299 1292.33 103.695L1295.99 133.515C1296.01 133.613 1296 133.715 1295.98 133.812C1295.74 134.769 1295.04 137 1293.64 137ZM1286.7 104.59C1287.48 108.727 1290.65 125.291 1292.37 132.12C1292.98 134.548 1293.47 135.203 1293.64 135.37C1293.88 135.138 1294.24 134.34 1294.45 133.559L1290.89 104.587L1286.7 104.59Z" fill="black" stroke="black" stroke-width="0.5"/>
<g opacity="0.5">
<path d="M1288.98 89H1215.02C1211.15 89 1208 85.6334 1208 81.4985C1208 77.3635 1211.15 74 1215.02 74H1288.98C1292.85 74 1296 77.365 1296 81.4985C1296 85.635 1292.85 89 1288.98 89Z" fill="#2A94E2"/>
<path d="M1215.02 75.5429H1288.98C1292 75.5429 1294.45 78.2136 1294.45 81.4985C1294.45 84.7848 1292 87.4571 1288.98 87.4571H1215.02M1288.98 89H1215.02C1211.15 89 1208 85.6334 1208 81.4985C1208 77.3635 1211.15 74 1215.02 74H1288.98C1292.85 74 1296 77.365 1296 81.4985C1296 85.635 1292.85 89 1288.98 89Z" stroke="black" stroke-width="0.5"/>
</g>
<path d="M1288.98 89H1215.02C1211.15 89 1208 85.6334 1208 81.4985C1208 77.3635 1211.15 74 1215.02 74H1288.98C1292.85 74 1296 77.365 1296 81.4985C1296 85.635 1292.85 89 1288.98 89ZM1215.02 75.5429C1212 75.5429 1209.55 78.2136 1209.55 81.4985C1209.55 84.7848 1212 87.4571 1215.02 87.4571H1288.98C1292 87.4571 1294.45 84.7848 1294.45 81.4985C1294.45 78.2136 1292 75.5429 1288.98 75.5429H1215.02Z" fill="black" stroke="black" stroke-width="0.5"/>
<path d="M1303.22 89H1201.78C1201.35 89 1201 88.776 1201 88.5C1201 88.224 1201.35 88 1201.78 88H1303.22C1303.65 88 1304 88.224 1304 88.5C1304 88.776 1303.65 89 1303.22 89Z" fill="black" stroke="black" stroke-width="0.5"/>
<path d="M1302.81 105C1302.36 105 1302 104.658 1302 104.237V83.4662L1305.4 62.6449C1305.47 62.2284 1305.89 61.9461 1306.32 62.0087C1306.76 62.0728 1307.06 62.4633 1306.99 62.8799L1303.6 83.5837L1303.61 104.237C1303.61 104.658 1303.25 105 1302.81 105Z" fill="black" stroke="black" stroke-width="0.5"/>
<path opacity="0.5" d="M978 91H1071V102.5L1066.5 106H982.5L978 102.5V91Z" fill="#2A94E2"/>
<path d="M1091.41 80.6462H1077.21C1076.65 80.6462 1076.12 80.7177 1075.61 80.8228L1074.35 51.1304C1074.05 44.0131 1067.93 38 1060.99 38H1025.26H1023.74H987.968C981.03 38 974.911 44.0131 974.606 51.1304L973.347 80.8198C972.839 80.7162 972.312 80.6462 971.751 80.6462H957.55C953.693 80.6462 951 83.2095 951 86.8786V99.3282C951 102.668 951 108.136 951 111.478V120.283C951 123.867 953.69 127.862 957.55 127.862H964.639V134.715V135.477V136.238C964.639 136.659 964.979 137 965.397 137H969.186H969.943C970.362 137 970.701 136.659 970.701 136.238V127.862H984.242H1064.72H1078.3V136.238V137H1079.06H1082.85H1083.6C1084.02 137 1084.36 136.659 1084.36 136.238V127.862H1091.41C1095.29 127.862 1098 123.867 1098 120.281V111.476C1098 108.136 1098 102.668 1098 99.3267V86.8771C1098 83.2095 1095.29 80.6462 1091.41 80.6462ZM1025.26 39.5231H1060.99C1067.15 39.5231 1072.57 44.8691 1072.84 51.1959L1074.12 81.3346C1072.04 82.3231 1070.72 84.3198 1070.72 86.8786V90.5614C1070.09 90.0801 1069.31 89.7846 1068.46 89.7846H1025.26V39.5231ZM1025.26 91.3077H1068.46C1069.71 91.3077 1070.72 92.3282 1070.72 93.5832V99.3267C1070.72 102.253 1068 105.015 1065.12 105.015H1025.26V91.3077ZM1023.74 105.015H983.84C980.98 105.015 978.278 102.253 978.278 99.3282V93.5847C978.278 92.3282 979.294 91.3077 980.542 91.3077H1023.74V105.015ZM976.12 51.1959C976.392 44.8691 981.817 39.5231 987.968 39.5231H1023.74V89.7846H980.542C979.689 89.7846 978.912 90.0801 978.278 90.5614V86.8786C978.278 84.3107 976.946 82.3094 974.841 81.3254L976.12 51.1959ZM969.186 135.477H966.155V127.862H969.186V135.477ZM1082.85 135.477H1079.81V127.862H1082.85V135.477ZM1096.48 120.281C1096.48 123.14 1094.31 126.338 1091.41 126.338H1084.36H1082.85H1079.81H1078.3H1077.21C1073.89 126.338 1068.45 126.338 1065.12 126.338H1064.72H984.242H983.84C980.517 126.338 975.076 126.338 971.751 126.338H969.186H966.155H964.639H957.55C954.583 126.338 952.515 123.146 952.515 120.281V86.8786C952.515 84.0624 954.539 82.1692 957.55 82.1692H971.751C974.749 82.1692 976.763 84.0624 976.763 86.8786V93.5832V99.3267C976.763 103.101 980.136 106.538 983.84 106.538H1065.12C1068.85 106.538 1072.24 103.101 1072.24 99.3282V93.5847V86.8801C1072.24 84.0624 1074.23 82.1692 1077.21 82.1692H1091.41C1094.44 82.1692 1096.48 84.0624 1096.48 86.8786V120.281Z" fill="black" stroke="black" stroke-width="0.5"/>
<path d="M1000.5 66C1001.88 66 1003 65.1046 1003 64C1003 62.8954 1001.88 62 1000.5 62C999.119 62 998 62.8954 998 64C998 65.1046 999.119 66 1000.5 66Z" fill="black" stroke="black" stroke-width="0.5"/>
<path d="M1049 66C1050.1 66 1051 65.1046 1051 64C1051 62.8954 1050.1 62 1049 62C1047.9 62 1047 62.8954 1047 64C1047 65.1046 1047.9 66 1049 66Z" fill="black" stroke="black" stroke-width="0.5"/>
<path d="M824.542 2H807.155V17.1685H724V27.0281H758.018V36.736L747.283 47.5056H742.899V61.1573H775.405V47.5056H771.02L760.286 36.736V27.0281H807.155V96.8034H790.524V74.0506H727.78V137H807.155H824.542H835.881V96.8034H824.542V27.0281H851V17.1685H824.542V2ZM809.423 4.27528H822.274V17.1685H809.423V4.27528ZM773.137 49.7809V58.882H745.167V49.7809H773.137ZM767.694 47.5056H750.458L759.076 38.8596L767.694 47.5056ZM833.613 99.0787V134.725H822.274H809.423H730.048V76.3258H788.256V99.0787H833.613ZM809.423 96.8034V27.0281H822.274V96.8034H809.423ZM848.732 19.4438V24.7528H726.268V19.4438H848.732Z" fill="black"/>
<path opacity="0.5" d="M741 103H756V88H741V103Z" fill="#2A94E2"/>
<path d="M755.1 88.9V102.1H741.9V88.9H755.1Z" stroke="black" stroke-width="1.8"/>
<path opacity="0.5" d="M763 103H778V88H763V103Z" fill="#2A94E2"/>
<path d="M777.1 88.9V102.1H763.9V88.9H777.1Z" stroke="black" stroke-width="1.8"/>
<path opacity="0.5" d="M741 125H756V110H741V125Z" fill="#2A94E2"/>
<path d="M755.1 110.9V124.1H741.9V110.9H755.1Z" stroke="black" stroke-width="1.8"/>
<path opacity="0.5" d="M763 125H778V110H763V125Z" fill="#2A94E2"/>
<path d="M777.1 110.9V124.1H763.9V110.9H777.1Z" stroke="black" stroke-width="1.8"/>
<path opacity="0.5" d="M788 125H803V110H788V125Z" fill="#2A94E2"/>
<path d="M802.1 110.9V124.1H788.9V110.9H802.1Z" stroke="black" stroke-width="1.8"/>
<path opacity="0.5" d="M810 125H825V110H810V125Z" fill="#2A94E2"/>
<path d="M824.1 110.9V124.1H810.9V110.9H824.1Z" stroke="black" stroke-width="1.8"/>
<path d="M830 47H840V33H830V47ZM832.308 35.3333H837.692V44.6667H832.308V35.3333Z" fill="black"/>
<path opacity="0.5" d="M485 19.6098L593.142 2L596 4.31707L595.524 21H496.91L485 19.6098Z" fill="#2A94E2"/>
<path d="M612.32 104.216V132.561C612.32 134.951 610.281 137 607.841 137H484.423C482.041 137 480 134.953 480 132.561V131.764V25.6769V24.9362C480 22.4883 481.985 20.1553 484.366 19.7567L591.682 2.05636C592.024 2 592.248 2 592.532 2C594.519 2.11273 595.991 3.70703 595.991 5.81263V21.2363M612.32 104.216H619.577C622.017 104.216 624 102.167 624 99.7776V58.4587C624 56.0109 622.017 53.9636 619.577 53.9636H612.32M612.32 104.216H558.007C555.571 104.216 553.585 102.169 553.585 99.7776V58.4587C553.585 56.0129 555.571 53.9636 558.007 53.9636H612.32M612.32 53.9636V25.6769C612.32 23.2291 610.281 21.2363 607.841 21.2363H595.991M595.991 21.2363H481.907M578.476 71.662C574.336 71.662 570.991 75.0197 570.991 79.1181C570.991 83.2709 574.336 86.6286 578.476 86.6286C582.556 86.6286 586.072 83.2709 586.072 79.1181C586.07 75.0197 582.556 71.662 578.476 71.662Z" stroke="black" stroke-width="1.8"/>
<path opacity="0.5" d="M260 50H278V69H260V50Z" fill="#2A94E2"/>
<path opacity="0.5" d="M295 50H314V69H295V50Z" fill="#2A94E2"/>
<path opacity="0.5" d="M351 75H368V92H351V75Z" fill="#2A94E2"/>
<path d="M327.754 2V137H298.683V119.202C298.683 118.355 297.913 117.584 297.068 117.584H277.687C276.617 117.62 276.096 118.592 276.072 119.202V137H247V39.3146L327.754 2ZM338.008 30.2135H380V137H338.008V30.2135ZM350.928 43.1573H367.079V59.337H350.928V43.1573ZM259.921 49.6292H279.302V69.045H259.921V49.6292ZM295.453 49.6292H314.834V69.045H295.453V49.6292ZM350.928 75.5169H367.079V91.6967H350.928V75.5169ZM259.921 85.2248H279.302V104.64H259.921V85.2248ZM295.453 85.2248H314.834V104.64H295.453V85.2248ZM350.928 107.876H367.079V124.056H350.928V107.876Z" stroke="black" stroke-width="1.8"/>
<path opacity="0.5" d="M142 62.3289L125 55V70.1146L142 75V62.3289Z" fill="#2A94E2"/>
<path d="M142 62.3289L125 55V70.1146L142 75V62.3289ZM140.465 72.922L126.535 68.9204V57.371L140.465 63.3749V72.922Z" fill="black"/>
<path opacity="0.5" d="M142 77.9232L125 73V88.8938L142 92V77.9232Z" fill="#2A94E2"/>
<path d="M142 77.9232L125 73V88.8938L142 92V77.9232ZM140.465 89.9444L126.535 87.396V75.2538L140.465 79.286V89.9444Z" fill="black"/>
<path opacity="0.5" d="M88 42.2755L81 40V59.7956L88 62V42.2755Z" fill="#2A94E2"/>
<path d="M88 42.2755L81 40V59.7956L88 62V42.2755ZM86.3432 59.7795L82.6568 58.6182V42.2432L86.3432 43.4416V59.7795Z" fill="black"/>
<path opacity="0.5" d="M88 107.929V90.8668L81 90V108L88 107.929Z" fill="#2A94E2"/>
<path d="M88 107.929V90.8668L81 90V108L88 107.929ZM82.6585 91.8583L86.3449 92.3146V106.303L82.6585 106.339V91.8583Z" fill="black"/>
<path opacity="0.5" d="M97 70.4663L89 69V86.3372L97 87V70.4663Z" fill="#2A94E2"/>
<path d="M97 70.4663L89 69V86.3372L97 87V70.4663ZM95.1056 85.3203L90.8944 84.9723V70.9006L95.1056 71.6724V85.3203Z" fill="black"/>
<path d="M116 51.355L110 49V68.1888L116 70V51.355ZM114.173 67.495L111.827 66.7862V51.7244L114.173 52.645V67.495Z" fill="black"/>
<path d="M104 86.3943L110 87V71.3632L104 70V86.3943ZM105.705 72.0465L108.295 72.636V85.2039L105.705 84.9422V72.0465Z" fill="black"/>
<path opacity="0.5" d="M14 60.8011V73L58 62.8113V48L14 60.8011Z" fill="#2A94E2"/>
<path d="M14 60.8011V73L58 62.8113V48L14 60.8011ZM56.3883 61.5865L15.6085 71.0287V61.9544L56.3883 50.0893V61.5865Z" fill="black"/>
<path opacity="0.5" d="M14 92L58 86.7765V70L14 78.4655V92Z" fill="#2A94E2"/>
<path d="M14 92L58 86.7765V70L14 78.4655V92ZM15.6101 79.7785L56.3899 71.9306V85.3648L15.6101 90.2063V79.7785Z" fill="black"/>
<path d="M121.824 45.9458V35.5733L57.0224 2L18.6623 20.1631V41.0726L0 48.8761V62.6485L6.50993 63.7861V117.318H13.6708L13.6822 127.412L69.0198 136.977L69.1458 137L93.2567 133.469L96.4374 133.022V133.005L125.257 128.787L125.949 128.685V114.141L147 113.546V57.4574L121.824 45.9458ZM57.814 4.22682L120.208 36.5528V45.2067L69.1716 21.8703L57.814 26.6289V4.22682ZM15.2846 115.705H8.12529V62.4307L1.61537 61.2931V49.9492L20.2761 42.144V21.1829L56.1986 4.17518V29.0542L68.3494 23.9632V135.223L15.2959 126.051L15.2846 115.705ZM91.2311 132.127V116.329H94.822V131.612L93.1679 131.853L91.2311 132.127ZM145.385 111.974L124.333 112.57V127.289L96.4374 131.375V114.716H89.6157V132.372L69.9648 135.249V24.0084L145.383 58.4934V111.974H145.385Z" fill="black"/>
</svg>
